PathFileType	4	(X/Y/Z)	SUBJ32_4_walk_RCNL2025.trc
DataRate	CameraRate	NumFrames	NumMarkers	Units	OrigDataRate	OrigDataStartFrame	OrigNumFrames
100	100	5	25	mm	100	1	273
Frame#	Time	R_Shoulder			L_Shoulder			C7			J_Notch			R_Elbow			L_Elbow			R_Wrist			L_Wrist			R_Asis			L_Asis			Sacral			Thoracic			Sternum			R_Thigh_Lateral			R_Knee_Lateral			R_Shank_Lateral			R_Ankle_Lateral			R_Heel			R_Toe			L_Thigh_Lateral			L_Knee_Lateral			L_Shank_Lateral			L_Ankle_Lateral			L_Heel			L_Toe		
		X1	Y1	Z1	X2	Y2	Z2	X3	Y3	Z3	X4	Y4	Z4	X5	Y5	Z5	X6	Y6	Z6	X7	Y7	Z7	X8	Y8	Z8	X9	Y9	Z9	X10	Y10	Z10	X11	Y11	Z11	X12	Y12	Z12	X13	Y13	Z13	X14	Y14	Z14	X15	Y15	Z15	X16	Y16	Z16	X17	Y17	Z17	X18	Y18	Z18	X19	Y19	Z19	X20	Y20	Z20	X21	Y21	Z21	X22	Y22	Z22	X23	Y23	Z23	X24	Y24	Z24	X25	Y25	Z25
1	0.00000000	-1583.830933	1351.307251	320.747253	-1596.189819	1351.259277	-47.668148	-1613.545166	1430.630493	147.792603	-1492.660767	1324.125854	136.502380	-1672.748657	1026.799683	427.134338	-1623.372803	1034.792114	-160.319672	-1602.525269	787.467407	453.859665	-1461.756348	833.800140	-172.369530	-1515.440308	893.031555	252.118210	-1527.847168	887.484802	-2.727139	-1720.451904	938.629089	138.586548	-1718.569336	1197.454590	141.382919	-1433.532715	1098.428345	129.630066	-1488.157959	548.229431	336.879028	-1468.780762	462.136108	290.499908	-1500.490967	306.946014	357.380951	-1528.738647	83.027130	247.606262	-1573.843628	73.195808	188.234299	-1401.509399	60.365284	234.945328	-1638.544922	546.010620	-85.420685	-1648.551147	452.386963	-35.725693	-1691.304810	231.496597	-51.510262	-1731.162354	51.691433	43.056610	-1781.024658	45.133877	91.933838	-1596.196777	34.246826	64.637726
2	0.01000000	-1573.825684	1349.619385	321.540741	-1584.852295	1350.600586	-46.871895	-1602.994263	1429.315308	148.717224	-1482.008301	1322.867432	137.485306	-1664.235962	1025.301636	427.147919	-1609.640747	1034.810669	-161.313965	-1594.724365	785.800537	454.378128	-1444.673340	836.667206	-172.145401	-1504.967651	891.737915	252.454987	-1517.812866	886.017944	-2.579491	-1710.186401	937.456360	139.168457	-1707.991333	1196.313599	141.642197	-1423.134277	1096.960693	129.885956	-1477.571533	547.322083	336.747711	-1456.674072	460.621918	290.464020	-1480.689087	303.855286	357.629669	-1492.821289	78.047920	248.738739	-1537.224854	65.505684	189.170944	-1364.270630	62.163643	236.019135	-1632.084717	545.326660	-85.097763	-1643.561157	451.848572	-35.292629	-1688.771606	231.400040	-51.180126	-1730.983643	52.049809	43.368961	-1780.876587	45.739288	92.357246	-1596.111816	34.190281	64.738441
3	0.02000000	-1563.746582	1347.852905	322.389099	-1573.429932	1349.851440	-46.008312	-1592.401489	1427.908325	149.696777	-1471.303345	1321.505859	138.529968	-1655.571899	1023.712646	427.231110	-1595.995605	1034.762329	-162.193085	-1586.731323	784.050476	454.916153	-1427.993103	839.318298	-171.809448	-1494.394287	890.315247	252.873413	-1507.720703	884.521362	-2.382565	-1699.830322	936.167664	139.804810	-1697.367065	1195.078247	141.961502	-1412.681274	1095.412109	130.232056	-1467.996826	545.777283	336.617401	-1445.190308	458.691437	290.514374	-1460.967285	300.870880	358.077972	-1456.961914	74.117332	250.165482	-1500.759766	59.078144	190.608231	-1327.439087	64.674904	236.843201	-1625.552002	544.640747	-84.759216	-1638.465698	451.329651	-34.850117	-1686.206787	231.342850	-50.818771	-1730.817383	52.502064	43.712967	-1780.708740	46.473316	92.832512	-1596.042480	34.137737	64.858803
4	0.03000000	-1553.599487	1346.027832	323.297943	-1561.928589	1349.025513	-45.072098	-1581.769287	1426.429077	150.735397	-1460.550049	1320.061035	139.639664	-1646.746094	1022.045471	427.385956	-1582.446899	1034.645996	-162.945831	-1578.546265	782.227600	455.468124	-1411.719177	841.727051	-171.351669	-1483.693115	888.777832	253.348724	-1497.583374	882.990051	-2.123979	-1689.365845	934.779053	140.504135	-1686.692749	1193.760620	142.351746	-1402.169067	1093.809692	130.668808	-1459.367554	543.590088	336.482483	-1434.234741	456.395630	290.646973	-1441.293579	298.084412	358.702789	-1421.448364	71.304787	251.834656	-1464.759521	53.982418	192.506790	-1291.270386	67.895447	237.414200	-1618.948120	543.982300	-84.406425	-1633.257690	450.851929	-34.397171	-1683.626953	231.361511	-50.425407	-1730.646973	53.067200	44.096786	-1780.513672	47.367794	93.363770	-1595.992920	34.091766	64.999413
5	0.04000000	-1543.392334	1344.164307	324.271362	-1550.360840	1348.139038	-44.057770	-1571.099609	1424.896973	151.839493	-1449.751099	1318.557007	140.817688	-1637.749756	1020.311890	427.611908	-1569.000977	1034.463135	-163.560287	-1570.168640	780.341949	456.030746	-1395.853333	843.867828	-170.762604	-1472.841797	887.144348	253.856812	-1487.386963	881.422852	-1.798002	-1678.777832	933.311279	141.274170	-1675.963623	1192.374634	142.823837	-1391.589111	1092.181885	131.200348	-1451.540405	540.813354	336.340668	-1423.690063	453.809326	290.856323	-1421.719238	295.587067	359.469391	-1386.636841	69.623154	253.677856	-1429.583984	50.208252	194.794724	-1256.079712	71.804245	237.745911	-1612.267578	543.380371	-84.042557	-1627.924316	450.437378	-33.938953	-1681.039795	231.495850	-50.009392	-1730.454956	53.768143	44.520802	-1780.282227	48.457642	93.945656	-1595.956909	34.052677	65.153229
